<svg viewBox="0 0 24 24" xmlns="http://www.w3.org/2000/svg">
  <path
    d="M23.982 8.164c-.006-.029-.01-.058-.018-.086l-.016-.05a1.046 1.046 0 00-.027-.075l-.023-.05a.923.923 0 00-.035-.069l-.03-.048a1.048 1.048 0 00-.13-.163l-.04-.04a.842.842 0 00-.06-.049l-.046-.035c-.006-.004-.011-.01-.017-.013L12.572.173a1.03 1.03 0 00-1.144 0L.459 7.486l-.017.013c-.016.01-.031.023-.047.035a1.453 1.453 0 00-.1.089.966.966 0 00-.13.164l-.029.047a.899.899 0 00-.035.068l-.023.05-.027.075-.015.049a1.042 1.042 0 00-.019.087l-.008.044A1.02 1.02 0 000 8.342v7.314c0 .045.003.09.01.135.002.016.006.029.01.044a.665.665 0 00.036.137.904.904 0 00.025.076c.007.016.016.032.022.049a1.301 1.301 0 00.065.115c.014.023.03.043.045.062l.036.044c.016.02.032.04.052.056.013.013.025.03.042.04l.058.048c.015.013.032.023.045.036.006.003.01.01.016.012l10.966 7.316a1.024 1.024 0 001.144 0l10.969-7.312.017-.013c.016-.01.031-.023.047-.035.02-.016.04-.032.058-.049l.042-.04a.927.927 0 00.13-.163l.029-.047a.968.968 0 00.035-.07l.023-.049.027-.075.016-.05.018-.087.008-.045a.994.994 0 00.009-.134V8.344c0-.046-.004-.09-.01-.135-.002-.016-.006-.029-.01-.045h.002zM12 14.44L8.352 12 12 9.56 15.647 12 12 14.44zm-1.031-6.671l-4.471 2.99-3.61-2.414 8.08-5.387v4.81zm-6.326 4.23l-2.58 1.726v-3.45L4.643 12zm1.855 1.242l4.47 2.99v4.811l-8.08-5.387 3.61-2.414zm6.533 2.99l4.471-2.99 3.61 2.414-8.081 5.387v-4.81zm6.326-4.23l2.58-1.726v3.451L19.357 12zm-1.855-1.242l-4.471-2.99V2.96l8.08 5.386-3.609 2.414z"
    fill="#000"
  ></path>
</svg>
