<svg viewBox="0 0 24 24" xmlns="http://www.w3.org/2000/svg">
  <path
    fill-rule="evenodd"
    clip-rule="evenodd"
    d="M12 0C5.373 0 0 5.508 0 12.304c0 5.436 3.438 10.048 8.206 11.675.6.114.82-.267.82-.592 0-.293-.01-1.263-.016-2.29-3.338.743-4.043-1.453-4.043-1.453-.546-1.422-1.332-1.8-1.332-1.8-1.089-.763.082-.748.082-.748 1.205.087 1.84 1.268 1.84 1.268 1.07 1.881 2.807 1.337 3.491 1.023.108-.795.42-1.338.762-1.645-2.665-.311-5.467-1.366-5.467-6.08 0-1.344.469-2.442 1.236-3.303-.124-.31-.535-1.562.117-3.256 0 0 1.007-.331 3.3 1.26A11.23 11.23 0 0112 5.95a11.26 11.26 0 013.006.414c2.29-1.592 3.297-1.261 3.297-1.261.653 1.694.242 2.946.118 3.256.769.861 1.235 1.959 1.235 3.302 0 4.726-2.808 5.766-5.48 6.071.43.382.814 1.13.814 2.279 0 1.646-.014 2.97-.014 3.376 0 .327.216.711.825.59C20.566 22.35 24 17.738 24 12.304 24 5.508 18.627 0 12 0z"
    fill="#000"
  ></path>
  <path
    d="M4.5 17.524c-.026.06-.12.08-.204.037-.086-.04-.135-.124-.107-.185.026-.063.12-.081.205-.039.087.04.136.125.106.187zm.586.541c-.057.055-.168.03-.243-.057-.078-.086-.093-.2-.035-.256.059-.055.166-.03.245.057.078.087.093.201.033.256zm.402.694c-.073.052-.192.003-.266-.107-.073-.11-.073-.241.002-.294.074-.053.191-.005.266.104.073.111.073.243-.002.297zm.68.802c-.065.075-.204.055-.306-.047-.104-.1-.133-.24-.068-.315.066-.075.206-.054.309.047.103.1.135.242.065.315zm.879.271c-.029.097-.163.141-.298.1-.134-.042-.223-.156-.195-.253.028-.098.162-.143.298-.1.135.043.223.155.195.253zm1 .115c.003.102-.111.187-.253.189-.142.003-.257-.08-.259-.18 0-.103.112-.186.254-.189.142-.003.258.08.258.18zm.982-.039c.017.1-.081.202-.222.229-.138.026-.266-.035-.284-.134-.017-.102.084-.204.222-.23.14-.025.267.034.284.135z"
    fill="#000"
  ></path>
</svg>
