<svg viewBox="0 0 24 24" xmlns="http://www.w3.org/2000/svg">
  <path
    d="M9.94 19.98c-4.571-.08-6.132-.152-7.092-.34-.649-.124-1.213-.4-1.627-.802-.32-.304-.574-.768-.77-1.411-.17-.536-.236-.982-.33-2.071-.144-2.458-.178-4.468 0-6.714.147-1.24.218-2.712 1.194-3.571.461-.402.997-.66 1.6-.768C3.854 4.134 7.86 4 12.008 4c4.138 0 8.154.134 9.095.303.752.134 1.457.536 1.871 1.054.891 1.33.907 2.983.997 4.276.037.617.037 4.116 0 4.732-.14 2.044-.254 2.767-.574 3.517-.197.473-.366.723-.658 1a3.217 3.217 0 01-1.674.812c-3.956.283-7.314.344-11.126.286zm6.057-8.213c-2.2-1.116-4.308-2.151-6.462-3.223v6.41c2.267-1.17 4.656-2.24 6.471-3.196l-.01.009z"
    fill="#000"
  ></path>
</svg>
